<mxfile host="app.diagrams.net" modified="2023-12-05T06:34:17.723Z" agent="Mozilla/5.0 (Windows NT 10.0; Win64; x64) AppleWebKit/537.36 (KHTML, like Gecko) Chrome/119.0.0.0 Safari/537.36" etag="a4qJ0kjplhvaRHcmi-UL" version="22.1.5" type="device">
  <diagram name="Lapa-1" id="6zmiZXzoFehZ_i2UNrHe">
    <mxGraphModel dx="1434" dy="790" grid="1" gridSize="10" guides="1" tooltips="1" connect="1" arrows="1" fold="1" page="1" pageScale="1" pageWidth="827" pageHeight="1169" math="0" shadow="0">
      <root>
        <mxCell id="0" />
        <mxCell id="1" parent="0" />
        <mxCell id="0tgdr4tur2jOqvCvpbMI-1" value="Darbinieks" style="swimlane;childLayout=stackLayout;horizontal=1;startSize=50;horizontalStack=0;rounded=1;fontSize=14;fontStyle=0;strokeWidth=2;resizeParent=0;resizeLast=1;shadow=0;dashed=0;align=center;arcSize=4;whiteSpace=wrap;html=1;" parent="1" vertex="1">
          <mxGeometry x="480" y="240" width="180" height="130" as="geometry" />
        </mxCell>
        <mxCell id="0tgdr4tur2jOqvCvpbMI-2" value="ID(PK)(integer)&lt;br&gt;Vards(Text)&lt;br&gt;Uzvards(Text)&lt;br&gt;Lietotajsvards(Text)&lt;br&gt;Parole(Text)" style="align=left;strokeColor=none;fillColor=none;spacingLeft=4;fontSize=12;verticalAlign=top;resizable=0;rotatable=0;part=1;html=1;" parent="0tgdr4tur2jOqvCvpbMI-1" vertex="1">
          <mxGeometry y="50" width="180" height="80" as="geometry" />
        </mxCell>
        <mxCell id="0tgdr4tur2jOqvCvpbMI-3" value="Izejviela" style="swimlane;childLayout=stackLayout;horizontal=1;startSize=50;horizontalStack=0;rounded=1;fontSize=14;fontStyle=0;strokeWidth=2;resizeParent=0;resizeLast=1;shadow=0;dashed=0;align=center;arcSize=4;whiteSpace=wrap;html=1;" parent="1" vertex="1">
          <mxGeometry x="160" y="240" width="240" height="150" as="geometry" />
        </mxCell>
        <mxCell id="0tgdr4tur2jOqvCvpbMI-4" value="ID(PK)(integer)&lt;br&gt;Nosaukums(Text)&lt;br&gt;Min_daudzums(numeric)&lt;br&gt;Max_daudzums(numeric)&lt;br&gt;Pieejamais_daudzums(numeric)&lt;br&gt;Cena(numeric)" style="align=left;strokeColor=none;fillColor=none;spacingLeft=4;fontSize=12;verticalAlign=top;resizable=0;rotatable=0;part=1;html=1;" parent="0tgdr4tur2jOqvCvpbMI-3" vertex="1">
          <mxGeometry y="50" width="240" height="100" as="geometry" />
        </mxCell>
      </root>
    </mxGraphModel>
  </diagram>
</mxfile>
